<!-- Generated by IcoMoon.io -->
<svg version="1.1" xmlns="http://www.w3.org/2000/svg" width="32" height="32" viewBox="0 0 32 32">
<title>camera</title>
<path d="M16 10.667c-2.891 0-5.333 2.443-5.333 5.333s2.443 5.333 5.333 5.333 5.333-2.443 5.333-5.333-2.443-5.333-5.333-5.333zM16 18.667c-1.42 0-2.667-1.247-2.667-2.667s1.247-2.667 2.667-2.667 2.667 1.247 2.667 2.667-1.247 2.667-2.667 2.667z"></path>
<path d="M26.667 6.667h-3.448l-3.609-3.609c-0.241-0.241-0.573-0.391-0.941-0.391-0.001 0-0.001 0-0.002 0h-5.333c-0.001 0-0.001 0-0.002 0-0.368 0-0.7 0.149-0.941 0.391l-3.609 3.609h-3.448c-1.471 0-2.667 1.196-2.667 2.667v14.667c0 1.471 1.196 2.667 2.667 2.667h21.333c1.471 0 2.667-1.196 2.667-2.667v-14.667c0-1.471-1.196-2.667-2.667-2.667zM5.333 24v-14.667h4c0.355 0 0.693-0.14 0.943-0.391l3.609-3.609h4.229l3.609 3.609c0.241 0.241 0.573 0.391 0.941 0.391 0.001 0 0.001 0 0.002 0h4l0.003 14.667h-21.336z"></path>
</svg>
