<!-- Generated by IcoMoon.io -->
<svg version="1.1" xmlns="http://www.w3.org/2000/svg" width="32" height="32" viewBox="0 0 32 32">
<title>show-slash</title>
<path d="M21.2 7.467l4-4 1.867 2-23.067 23.067-1.867-2 4.533-4.533c-2.933-2.533-4-5.6-4-5.6l-0.133-0.4 0.267-0.4c0-0.133 3.067-8.933 13.2-8.933 2 0 3.6 0.4 5.2 0.8zM16 12h0.667l2.4-2.267c-0.933-0.267-2-0.4-3.067-0.4-7.067 0-9.867 5.067-10.533 6.667 0.267 0.8 1.2 2.667 3.067 4.133l3.467-3.467v-0.667c0-2.267 1.733-4 4-4z"></path>
<path d="M29.2 15.6c0 0-1.067-3.067-4-5.6l-1.867 1.867c1.867 1.467 2.8 3.333 3.2 4.133-0.667 1.6-3.467 6.667-10.533 6.667-1.067 0-2.133-0.133-3.067-0.4l-2.133 2.133c1.467 0.533 3.2 0.933 5.2 0.933 10.133 0 13.2-8.8 13.2-8.933l0.133-0.4-0.133-0.4z"></path>
<path d="M16 20c2.133 0 4-1.867 4-4v-0.667l-4.667 4.667h0.667z"></path>
</svg>
