<!-- Generated by IcoMoon.io -->
<svg version="1.1" xmlns="http://www.w3.org/2000/svg" width="32" height="32" viewBox="0 0 32 32">
<title>show</title>
<path d="M13.179 13.179c0.749-0.749 1.762-1.172 2.821-1.179 2.188 0 4 1.812 4 4 0 2.189-1.812 4-4 4-2.189 0-4-1.811-4-4 0.007-1.059 0.431-2.072 1.179-2.821z"></path>
<path d="M2.736 15.579c0.028-0.089 3.087-8.912 13.264-8.912s13.236 8.823 13.265 8.912l0.14 0.421-0.141 0.421c-0.028 0.089-3.087 8.912-13.264 8.912s-13.236-8.823-13.265-8.912l-0.14-0.421 0.141-0.421zM5.432 16c0.669 1.539 3.433 6.667 10.568 6.667 7.131 0 9.896-5.123 10.568-6.667-0.669-1.539-3.433-6.667-10.568-6.667-7.131 0-9.896 5.123-10.568 6.667z"></path>
</svg>
