<!-- Generated by IcoMoon.io -->
<svg version="1.1" xmlns="http://www.w3.org/2000/svg" width="32" height="32" viewBox="0 0 32 32">
<title>show</title>
<path d="M16 12c-2.203 0.015-3.985 1.797-4 3.999v0.001c0 2.189 1.811 4 4 4 2.188 0 4-1.811 4-4 0-2.188-1.812-4-4-4z"></path>
<path d="M16 6.667c-10.177 0-13.236 8.823-13.264 8.912l-0.141 0.421 0.14 0.421c0.029 0.089 3.088 8.912 13.265 8.912s13.236-8.823 13.264-8.912l0.141-0.421-0.14-0.421c-0.029-0.089-3.088-8.912-13.265-8.912zM16 22.667c-7.135 0-9.899-5.128-10.568-6.667 0.672-1.544 3.437-6.667 10.568-6.667 7.135 0 9.899 5.128 10.568 6.667-0.672 1.544-3.437 6.667-10.568 6.667z"></path>
</svg>
