<!-- Generated by IcoMoon.io -->
<svg version="1.1" xmlns="http://www.w3.org/2000/svg" width="32" height="32" viewBox="0 0 32 32">
<title>user</title>
<path d="M16 2.667c-3.682 0-6.667 2.985-6.667 6.667s2.985 6.667 6.667 6.667c3.682 0 6.667-2.985 6.667-6.667v0c0-3.682-2.985-6.667-6.667-6.667v0zM16 13.333c-2.209 0-4-1.791-4-4s1.791-4 4-4c2.209 0 4 1.791 4 4v0c0 2.209-1.791 4-4 4v0zM28 28v-1.333c0-5.155-4.179-9.333-9.333-9.333v0h-5.333c-5.155 0-9.333 4.179-9.333 9.333v0 1.333h2.667v-1.333c0-3.682 2.985-6.667 6.667-6.667v0h5.333c3.682 0 6.667 2.985 6.667 6.667v0 1.333z"></path>
</svg>
