<!-- Generated by IcoMoon.io -->
<svg version="1.1" xmlns="http://www.w3.org/2000/svg" width="32" height="32" viewBox="0 0 32 32">
<title>user</title>
<path d="M16 2.667c-1.319 0-2.607 0.391-3.704 1.124s-1.951 1.774-2.455 2.992c-0.505 1.218-0.637 2.559-0.379 3.852s0.892 2.481 1.825 3.413c0.932 0.932 2.12 1.567 3.413 1.825s2.634 0.125 3.852-0.379 2.259-1.359 2.992-2.455c0.733-1.096 1.124-2.385 1.124-3.704 0-1.768-0.702-3.464-1.953-4.714s-2.946-1.953-4.714-1.953v0zM16 13.333c-0.791 0-1.565-0.235-2.222-0.674s-1.171-1.064-1.473-1.795-0.382-1.535-0.228-2.311c0.154-0.776 0.535-1.489 1.095-2.048s1.272-0.94 2.048-1.095c0.776-0.154 1.58-0.075 2.311 0.228s1.356 0.815 1.795 1.473c0.44 0.658 0.674 1.431 0.674 2.222 0 1.061-0.421 2.078-1.172 2.828s-1.768 1.172-2.828 1.172v0zM28 28v-1.333c0-2.475-0.983-4.849-2.734-6.6s-4.124-2.734-6.6-2.734h-5.333c-2.475 0-4.849 0.983-6.6 2.734s-2.734 4.124-2.734 6.6v1.333h2.667v-1.333c0-1.768 0.702-3.464 1.953-4.714s2.946-1.953 4.714-1.953h5.333c1.768 0 3.464 0.702 4.714 1.953s1.953 2.946 1.953 4.714v1.333h2.667z"></path>
</svg>
