<svg aria-hidden="true" style="position: absolute; width: 0; height: 0; overflow: hidden;" version="1.1" xmlns="http://www.w3.org/2000/svg" xmlns:xlink="http://www.w3.org/1999/xlink">
    <defs>
        <symbol id="camera" viewBox="0 0 32 32">
            <path d="M16 10.667c-2.891 0-5.333 2.443-5.333 5.333s2.443 5.333 5.333 5.333 5.333-2.443 5.333-5.333-2.443-5.333-5.333-5.333zM16 18.667c-1.42 0-2.667-1.247-2.667-2.667s1.247-2.667 2.667-2.667 2.667 1.247 2.667 2.667-1.247 2.667-2.667 2.667z" fill="currentColor"></path>
            <path d="M26.667 6.667h-3.448l-3.609-3.609c-0.241-0.241-0.573-0.391-0.941-0.391-0.001 0-0.001 0-0.002 0h-5.333c-0.001 0-0.001 0-0.002 0-0.368 0-0.7 0.149-0.941 0.391l-3.609 3.609h-3.448c-1.471 0-2.667 1.196-2.667 2.667v14.667c0 1.471 1.196 2.667 2.667 2.667h21.333c1.471 0 2.667-1.196 2.667-2.667v-14.667c0-1.471-1.196-2.667-2.667-2.667zM5.333 24v-14.667h4c0.355 0 0.693-0.14 0.943-0.391l3.609-3.609h4.229l3.609 3.609c0.241 0.241 0.573 0.391 0.941 0.391 0.001 0 0.001 0 0.002 0h4l0.003 14.667h-21.336z" fill="currentColor"></path>
        </symbol>
        <symbol id="check" viewBox="0 0 32 32">
            <path d="M13.333 20.781l-4.391-4.391-1.885 1.885 6.276 6.276 12.943-12.943-1.885-1.885z" fill="currentColor"></path>
        </symbol>
        <symbol id="chevron-down" viewBox="0 0 32 32">
            <path d="M21.724 12.391l-5.724 5.724-5.724-5.724-1.885 1.885 7.609 7.609 7.609-7.609z" fill="currentColor"></path>
        </symbol>
        <symbol id="chevron-left" viewBox="0 0 32 32">
            <path d="M17.724 8.391l-7.609 7.609 7.609 7.609 1.885-1.885-5.724-5.724 5.724-5.724z" fill="currentColor"></path>
        </symbol>
        <symbol id="chevron-right" viewBox="0 0 32 32">
            <path d="M14.276 23.609l7.609-7.609-7.609-7.609-1.885 1.885 5.724 5.724-5.724 5.724z" fill="currentColor"></path>
        </symbol>
        <symbol id="chevron-up" viewBox="0 0 32 32">
            <path d="M8.391 17.724l1.885 1.885 5.724-5.724 5.724 5.724 1.885-1.885-7.609-7.609z" fill="currentColor"></path>
        </symbol>
        <symbol id="close" viewBox="0 0 32 32">
            <path d="M21.589 8.459l-5.657 5.656-5.656-5.656-1.885 1.885 5.656 5.656-5.656 5.656 1.885 1.885 5.656-5.656 5.657 5.656 1.885-1.885-5.656-5.656 5.656-5.656z" fill="currentColor"></path>
        </symbol>
        <symbol id="edit" viewBox="0 0 32 32">
            <path d="M25.393 9.868c0.504-0.504 0.781-1.173 0.781-1.885s-0.277-1.381-0.781-1.885l-2.115-2.115c-0.504-0.504-1.173-0.781-1.885-0.781s-1.381 0.277-1.884 0.78l-14.176 14.132v5.887h5.884l14.176-14.132zM21.393 5.868l2.116 2.113-2.12 2.112-2.115-2.113 2.119-2.112zM8 21.333v-2.113l9.387-9.357 2.115 2.115-9.385 9.356h-2.116zM5.333 26.667h21.333v2.667h-21.333z" fill="currentColor"></path>
        </symbol>
        <symbol id="search" viewBox="0 0 32 32">
            <path d="M13.333 24c2.473-0.001 4.749-0.848 6.552-2.268l-0.023 0.017 5.861 5.861 1.885-1.885-5.861-5.861c1.404-1.781 2.251-4.057 2.252-6.531v-0c0-5.881-4.785-10.667-10.667-10.667s-10.667 4.785-10.667 10.667 4.785 10.667 10.667 10.667zM13.333 5.333c4.412 0 8 3.588 8 8s-3.588 8-8 8-8-3.588-8-8 3.588-8 8-8z" fill="currentColor"></path>
        </symbol>
        <symbol id="show-slash" viewBox="0 0 32 32">
            <path d="M21.2 7.467l4-4 1.867 2-23.067 23.067-1.867-2 4.533-4.533c-2.933-2.533-4-5.6-4-5.6l-0.133-0.4 0.267-0.4c0-0.133 3.067-8.933 13.2-8.933 2 0 3.6 0.4 5.2 0.8zM16 12h0.667l2.4-2.267c-0.933-0.267-2-0.4-3.067-0.4-7.067 0-9.867 5.067-10.533 6.667 0.267 0.8 1.2 2.667 3.067 4.133l3.467-3.467v-0.667c0-2.267 1.733-4 4-4z" fill="currentColor"></path>
            <path d="M29.2 15.6c0 0-1.067-3.067-4-5.6l-1.867 1.867c1.867 1.467 2.8 3.333 3.2 4.133-0.667 1.6-3.467 6.667-10.533 6.667-1.067 0-2.133-0.133-3.067-0.4l-2.133 2.133c1.467 0.533 3.2 0.933 5.2 0.933 10.133 0 13.2-8.8 13.2-8.933l0.133-0.4-0.133-0.4z" fill="currentColor"></path>
            <path d="M16 20c2.133 0 4-1.867 4-4v-0.667l-4.667 4.667h0.667z" fill="currentColor"></path>
        </symbol>
        <symbol id="show" viewBox="0 0 32 32">
            <path d="M16 12c-2.203 0.015-3.985 1.797-4 3.999v0.001c0 2.189 1.811 4 4 4 2.188 0 4-1.811 4-4 0-2.188-1.812-4-4-4z" fill="currentColor"></path>
            <path d="M16 6.667c-10.177 0-13.236 8.823-13.264 8.912l-0.141 0.421 0.14 0.421c0.029 0.089 3.088 8.912 13.265 8.912s13.236-8.823 13.264-8.912l0.141-0.421-0.14-0.421c-0.029-0.089-3.088-8.912-13.265-8.912zM16 22.667c-7.135 0-9.899-5.128-10.568-6.667 0.672-1.544 3.437-6.667 10.568-6.667 7.135 0 9.899 5.128 10.568 6.667-0.672 1.544-3.437 6.667-10.568 6.667z" fill="currentColor"></path>
        </symbol>
        <symbol id="user" viewBox="0 0 32 32">
            <path d="M16 2.667c-3.682 0-6.667 2.985-6.667 6.667s2.985 6.667 6.667 6.667c3.682 0 6.667-2.985 6.667-6.667v0c0-3.682-2.985-6.667-6.667-6.667v0zM16 13.333c-2.209 0-4-1.791-4-4s1.791-4 4-4c2.209 0 4 1.791 4 4v0c0 2.209-1.791 4-4 4v0zM28 28v-1.333c0-5.155-4.179-9.333-9.333-9.333v0h-5.333c-5.155 0-9.333 4.179-9.333 9.333v0 1.333h2.667v-1.333c0-3.682 2.985-6.667 6.667-6.667v0h5.333c3.682 0 6.667 2.985 6.667 6.667v0 1.333z" fill="currentColor"></path>
        </symbol>
    </defs>
</svg>
