<svg aria-hidden="true" style="position: absolute; width: 0; height: 0; overflow: hidden;" version="1.1" xmlns="http://www.w3.org/2000/svg" xmlns:xlink="http://www.w3.org/1999/xlink">
    <defs>
        <symbol id="check" viewBox="0 0 32 32">
            <path d="M13.333 20.781l-4.391-4.391-1.885 1.885 6.276 6.276 12.943-12.943-1.885-1.885-11.057 11.057z" fill="currentColor"></path>
        </symbol>
        <symbol id="chevron-down" viewBox="0 0 32 32">
            <path d="M21.724 12.391l-5.724 5.724-5.724-5.724-1.885 1.885 7.609 7.609 7.609-7.609-1.885-1.885z" fill="currentColor"></path>
        </symbol>
        <symbol id="chevron-left" viewBox="0 0 32 32">
            <path d="M17.724 8.391l-7.609 7.609 7.609 7.609 1.885-1.885-5.724-5.724 5.724-5.724-1.885-1.885z" fill="currentColor"></path>
        </symbol>
        <symbol id="chevron-right" viewBox="0 0 32 32">
            <path d="M14.276 23.609l7.609-7.609-7.609-7.609-1.885 1.885 5.724 5.724-5.724 5.724 1.885 1.885z" fill="currentColor"></path>
        </symbol>
        <symbol id="chevron-up" viewBox="0 0 32 32">
            <path d="M8.391 17.724l1.885 1.885 5.724-5.724 5.724 5.724 1.885-1.885-7.609-7.609-7.609 7.609z" fill="currentColor"></path>
        </symbol>
        <symbol id="close" viewBox="0 0 32 32">
            <path d="M21.589 8.459l-5.657 5.656-5.656-5.656-1.885 1.885 5.656 5.656-5.656 5.656 1.885 1.885 5.656-5.656 5.657 5.656 1.885-1.885-5.656-5.656 5.656-5.656-1.885-1.885z" fill="currentColor"></path>
        </symbol>
        <symbol id="search" viewBox="0 0 32 32">
            <path d="M13.333 24c2.367-0.001 4.665-0.793 6.529-2.251l5.861 5.861 1.885-1.885-5.861-5.861c1.459-1.864 2.251-4.163 2.252-6.531 0-5.881-4.785-10.667-10.667-10.667s-10.667 4.785-10.667 10.667c0 5.881 4.785 10.667 10.667 10.667zM13.333 5.333c4.412 0 8 3.588 8 8s-3.588 8-8 8c-4.412 0-8-3.588-8-8s3.588-8 8-8z" fill="currentColor"></path>
        </symbol>
        <symbol id="show-slash" viewBox="0 0 32 32">
            <path d="M21.2 7.467l4-4 1.867 2-23.067 23.067-1.867-2 4.533-4.533c-2.933-2.533-4-5.6-4-5.6l-0.133-0.4 0.267-0.4c0-0.133 3.067-8.933 13.2-8.933 2 0 3.6 0.4 5.2 0.8zM16 12h0.667l2.4-2.267c-0.933-0.267-2-0.4-3.067-0.4-7.067 0-9.867 5.067-10.533 6.667 0.267 0.8 1.2 2.667 3.067 4.133l3.467-3.467v-0.667c0-2.267 1.733-4 4-4z" fill="currentColor"></path>
            <path d="M29.2 15.6c0 0-1.067-3.067-4-5.6l-1.867 1.867c1.867 1.467 2.8 3.333 3.2 4.133-0.667 1.6-3.467 6.667-10.533 6.667-1.067 0-2.133-0.133-3.067-0.4l-2.133 2.133c1.467 0.533 3.2 0.933 5.2 0.933 10.133 0 13.2-8.8 13.2-8.933l0.133-0.4-0.133-0.4z" fill="currentColor"></path>
            <path d="M16 20c2.133 0 4-1.867 4-4v-0.667l-4.667 4.667h0.667z" fill="currentColor"></path>
        </symbol>
        <symbol id="show" viewBox="0 0 32 32">
            <path d="M13.179 13.179c0.749-0.749 1.762-1.172 2.821-1.179 2.188 0 4 1.812 4 4 0 2.189-1.812 4-4 4-2.189 0-4-1.811-4-4 0.007-1.059 0.431-2.072 1.179-2.821z" fill="currentColor"></path>
            <path d="M2.736 15.579c0.028-0.089 3.087-8.912 13.264-8.912s13.236 8.823 13.265 8.912l0.14 0.421-0.141 0.421c-0.028 0.089-3.087 8.912-13.264 8.912s-13.236-8.823-13.265-8.912l-0.14-0.421 0.141-0.421zM5.432 16c0.669 1.539 3.433 6.667 10.568 6.667 7.131 0 9.896-5.123 10.568-6.667-0.669-1.539-3.433-6.667-10.568-6.667-7.131 0-9.896 5.123-10.568 6.667z" fill="currentColor"></path>
        </symbol>
        <symbol id="user" viewBox="0 0 32 32">
            <path d="M16 2.667c-1.319 0-2.607 0.391-3.704 1.124s-1.951 1.774-2.455 2.992c-0.505 1.218-0.637 2.559-0.379 3.852s0.892 2.481 1.825 3.413c0.932 0.932 2.12 1.567 3.413 1.825s2.634 0.125 3.852-0.379 2.259-1.359 2.992-2.455c0.733-1.096 1.124-2.385 1.124-3.704 0-1.768-0.702-3.464-1.953-4.714s-2.946-1.953-4.714-1.953v0zM16 13.333c-0.791 0-1.565-0.235-2.222-0.674s-1.171-1.064-1.473-1.795-0.382-1.535-0.228-2.311c0.154-0.776 0.535-1.489 1.095-2.048s1.272-0.94 2.048-1.095c0.776-0.154 1.58-0.075 2.311 0.228s1.356 0.815 1.795 1.473c0.44 0.658 0.674 1.431 0.674 2.222 0 1.061-0.421 2.078-1.172 2.828s-1.768 1.172-2.828 1.172v0zM28 28v-1.333c0-2.475-0.983-4.849-2.734-6.6s-4.124-2.734-6.6-2.734h-5.333c-2.475 0-4.849 0.983-6.6 2.734s-2.734 4.124-2.734 6.6v1.333h2.667v-1.333c0-1.768 0.702-3.464 1.953-4.714s2.946-1.953 4.714-1.953h5.333c1.768 0 3.464 0.702 4.714 1.953s1.953 2.946 1.953 4.714v1.333h2.667z" fill="currentColor"></path>
        </symbol>
    </defs>
</svg>
